<svg width="20" height="20" viewBox="0 0 20 20" fill="none" xmlns="http://www.w3.org/2000/svg">
<path fill-rule="evenodd" clip-rule="evenodd" d="M3.33366 3.33301H13.3337C13.3337 3.55402 13.4215 3.76598 13.5777 3.92226C13.734 4.07854 13.946 4.16634 14.167 4.16634C14.388 4.16634 14.6 4.07854 14.7562 3.92226C14.9125 3.76598 15.0003 3.55402 15.0003 3.33301H16.667C17.109 3.33301 17.5329 3.5086 17.8455 3.82116C18.1581 4.13372 18.3337 4.55765 18.3337 4.99967V14.9997C18.3337 15.4417 18.1581 15.8656 17.8455 16.1782C17.5329 16.4907 17.109 16.6663 16.667 16.6663H15.0003C15.0003 16.4453 14.9125 16.2334 14.7562 16.0771C14.6 15.9208 14.388 15.833 14.167 15.833C13.946 15.833 13.734 15.9208 13.5777 16.0771C13.4215 16.2334 13.3337 16.4453 13.3337 16.6663H3.33366C2.89163 16.6663 2.46771 16.4907 2.15515 16.1782C1.84259 15.8656 1.66699 15.4417 1.66699 14.9997V4.99967C1.66699 4.55765 1.84259 4.13372 2.15515 3.82116C2.46771 3.5086 2.89163 3.33301 3.33366 3.33301ZM15.0003 6.66717C15.0003 6.88819 14.9125 7.10015 14.7562 7.25643C14.6 7.41271 14.388 7.50051 14.167 7.50051C13.946 7.50051 13.734 7.41271 13.5777 7.25643C13.4215 7.10015 13.3337 6.88819 13.3337 6.66717V6.66634C13.3337 6.44533 13.4215 6.23337 13.5777 6.07709C13.734 5.92081 13.946 5.83301 14.167 5.83301C14.388 5.83301 14.6 5.92081 14.7562 6.07709C14.9125 6.23337 15.0003 6.44533 15.0003 6.66634V6.66717ZM14.167 10.8338C14.388 10.8338 14.6 10.746 14.7562 10.5898C14.9125 10.4335 15.0003 10.2215 15.0003 10.0005V9.99967C15.0003 9.77866 14.9125 9.5667 14.7562 9.41042C14.6 9.25414 14.388 9.16634 14.167 9.16634C13.946 9.16634 13.734 9.25414 13.5777 9.41042C13.4215 9.5667 13.3337 9.77866 13.3337 9.99967V10.0005C13.3337 10.2215 13.4215 10.4335 13.5777 10.5898C13.734 10.746 13.946 10.8338 14.167 10.8338ZM15.0003 13.3338C15.0003 13.5549 14.9125 13.7668 14.7562 13.9231C14.6 14.0794 14.388 14.1672 14.167 14.1672C13.946 14.1672 13.734 14.0794 13.5777 13.9231C13.4215 13.7668 13.3337 13.5549 13.3337 13.3338C13.3337 13.1128 13.4215 12.9 13.5777 12.7438C13.734 12.5875 13.946 12.4997 14.167 12.4997C14.388 12.4997 14.6 12.5875 14.7562 12.7438C14.9125 12.9 15.0003 13.1128 15.0003 13.3338Z" fill="white"/>
</svg>
